<?xml version="1.0" encoding="UTF-8" standalone="no"?>
<!-- Created with Inkscape (http://www.inkscape.org/) -->

<svg
   width="210mm"
   height="297mm"
   viewBox="0 0 210 297"
   version="1.1"
   id="svg1"
   inkscape:version="1.3.2 (091e20e, 2023-11-25, custom)"
   sodipodi:docname="dibujo-1.svg"
   xmlns:inkscape="http://www.inkscape.org/namespaces/inkscape"
   xmlns:sodipodi="http://sodipodi.sourceforge.net/DTD/sodipodi-0.dtd"
   xmlns="http://www.w3.org/2000/svg"
   xmlns:svg="http://www.w3.org/2000/svg">
  <sodipodi:namedview
     id="namedview1"
     pagecolor="#ffffff"
     bordercolor="#000000"
     borderopacity="0.25"
     inkscape:showpageshadow="2"
     inkscape:pageopacity="0.0"
     inkscape:pagecheckerboard="0"
     inkscape:deskcolor="#d1d1d1"
     inkscape:document-units="mm"
     inkscape:zoom="1.345188"
     inkscape:cx="692.46827"
     inkscape:cy="387.67816"
     inkscape:window-width="1920"
     inkscape:window-height="1009"
     inkscape:window-x="-8"
     inkscape:window-y="-8"
     inkscape:window-maximized="1"
     inkscape:current-layer="layer1" />
  <defs
     id="defs1" />
  <g
     inkscape:label="Capa 1"
     inkscape:groupmode="layer"
     id="layer1">
    <ellipse
       style="fill:#0a0a06;fill-opacity:1;fill-rule:evenodd;stroke:#000000;stroke-width:0.933;stroke-dasharray:none;stroke-opacity:1"
       id="path22"
       cx="111.82027"
       cy="85.256004"
       rx="58.969894"
       ry="55.771057" />
    <path
       id="path10"
       style="fill:#7586bb;fill-opacity:1;fill-rule:evenodd;stroke:#29012c;stroke-width:1.533"
       inkscape:transform-center-x="-0.12711836"
       inkscape:transform-center-y="-3.2630193"
       transform="matrix(0.59910121,0,0,0.57982836,79.577347,63.167495)"
       d="M 54.649968,-23.494393 25.926521,-3.1153746 c -0.297197,0.4371461 -0.699164,0.7112965 -1.141175,0.809243 L -3.8828971,18.034564 17.525991,86.535018 89.288892,87.342478 112.23315,19.340226 Z" />
    <path
       id="path1"
       style="fill:#bb7597;fill-opacity:1;fill-rule:evenodd;stroke:#29012c;stroke-width:1.14205"
       d="m 112.38003,58.782619 c 0.02,1.61882 0.0361,3.237868 0.0559,4.856644 0.0707,6.011159 0.10811,12.022669 0.14179,18.034124 1.60331,-1.727248 3.20177,-3.458804 4.79317,-5.197062 3.76704,-4.085157 7.54365,-8.162186 11.28708,-12.268929 a 27.16916,25.777556 0 0 0 -16.27789,-5.424777 z m -2.07256,0.112704 a 27.16916,25.777556 0 0 0 -17.768658,7.848868 c 0.160592,0.147666 0.128083,0.106651 1.44258,1.317824 3.25791,3.018503 6.590018,5.956443 9.839868,8.983598 2.4919,2.321124 3.20907,3.042309 5.69943,5.458627 0.32941,0.328842 0.6635,0.652858 0.99369,0.980868 -0.0357,-6.606915 -0.0745,-13.213821 -0.15219,-19.820459 -0.0194,-1.589639 -0.0352,-3.179597 -0.0547,-4.769326 z m 20.00303,6.574893 c -3.78432,4.154483 -7.6042,8.277229 -11.41384,12.408558 -1.80108,1.967446 -3.61494,3.92324 -5.43277,5.875208 8.56806,-0.161371 17.13637,-0.31211 25.70513,-0.439276 a 27.16916,25.777556 0 0 0 -8.85852,-17.84449 z m -39.20155,2.774126 a 27.16916,25.777556 0 0 0 -6.174102,16.162015 c 1.49409,-0.0469 2.988264,-0.0956 4.482235,-0.1354 6.825589,-0.18206 7.784329,-0.19289 14.794107,-0.34273 1.24312,-0.0248 2.48625,-0.0461 3.72937,-0.07039 -2.32921,-2.261251 -3.11343,-3.043746 -5.52334,-5.288606 -3.250648,-3.028026 -6.583888,-5.966514 -9.842574,-8.985906 -1.332413,-1.227767 -1.311841,-1.197647 -1.465696,-1.338981 z m 48.09167,17.140575 c -8.76743,0.13012 -17.53444,0.28457 -26.3012,0.45043 5.13155,5.04071 10.34366,9.99819 15.60016,14.909193 0.81489,0.76287 1.64357,1.51079 2.46478,2.26676 a 27.16916,25.777556 0 0 0 8.23626,-17.626383 z m -30.59464,0.53159 c -1.45016,0.0282 -2.90033,0.053 -4.35048,0.0819 -7.000448,0.14962 -7.962408,0.16052 -14.77908,0.34234 -1.471611,0.0392 -2.943449,0.0871 -4.415193,0.13309 a 27.16916,25.777556 0 0 0 7.252183,15.615803 c 0.413271,-0.3916 0.821442,-0.78825 1.242602,-1.17204 2.56582,-2.389723 5.13559,-4.776573 7.603578,-7.268033 2.5137,-2.54759 4.98996,-5.13095 7.44639,-7.73309 z m 1.92806,0.97971 c -2.60333,2.76311 -5.23016,5.50379 -7.89681,8.2066 -2.48835,2.51237 -5.079208,4.918813 -7.666378,7.328433 -0.39918,0.36369 -0.7859,0.7397 -1.17788,1.1105 a 27.16916,25.777556 0 0 0 17.324408,6.72336 c -0.29752,-4.85579 -0.49546,-9.71748 -0.5321,-14.583003 -0.0207,-2.92859 -0.0355,-5.85727 -0.0512,-8.78589 z m 2.08371,1.57632 c 0.0133,2.39831 0.0246,4.79668 0.0416,7.19495 0.0368,4.867583 0.23584,9.731353 0.53519,14.589163 a 27.16916,25.777556 0 0 0 16.20008,-5.87329 c -0.77016,-0.7097 -1.54798,-1.41096 -2.31259,-2.12675 -4.86705,-4.547183 -9.70087,-9.129253 -14.46429,-13.784073 z" />
    <path
       id="rect10"
       style="fill:#79b77d;fill-opacity:1;fill-rule:evenodd;stroke:#000000;stroke-width:0.784393;stroke-dasharray:none;stroke-opacity:1"
       transform="matrix(0.83585334,-0.54895282,0.57702488,0.81672657,0,0)"
       d="m 60.296351,86.995505 -9.287795,-2.01e-4 c -0.23763,0.418657 -0.476573,0.83674 -0.713243,1.25617 -1.255725,2.294086 -2.420618,4.633065 -3.558189,6.984777 -0.618863,1.267844 -1.228917,2.539996 -1.821498,3.819796 l 15.380821,-8.3e-5 z m -12.440297,-1.17e-4 -14.197083,3.81e-4 c 1.803903,2.312986 3.602855,4.629986 5.356016,6.982535 1.076959,1.473304 2.190723,2.934291 3.150722,4.491076 0.673067,-1.470191 1.368539,-2.930821 2.077869,-4.384606 1.15413,-2.387357 2.338855,-4.760301 3.612476,-7.089386 z m -17.782862,2.97e-4 -9.153789,2.2e-5 9.6e-5,12.060459 18.263871,-3.16e-4 c -0.773577,-1.155035 -1.61563,-2.265868 -2.434342,-3.385701 -1.985555,-2.66342 -4.027449,-5.283437 -6.071431,-7.901239 z" />
    <path
       id="path14"
       style="fill:#79b77d;fill-opacity:1;fill-rule:evenodd;stroke:#000000;stroke-width:0.784167;stroke-dasharray:none;stroke-opacity:1"
       d="m 156.34202,61.649212 -7.43504,-5.56628 c -0.42962,0.201017 -0.85992,0.400896 -1.2892,0.603152 -2.31691,1.129568 -4.58677,2.350405 -6.84204,3.598058 -1.22032,0.669287 -2.43605,1.347389 -3.64217,2.042229 l 12.31285,9.217566 z m -9.95876,-7.455485 -11.3654,-8.507908 c 0.12161,2.978693 0.23696,5.957713 0.29532,8.938449 0.0198,1.854143 0.076,3.720241 -0.0456,5.57278 1.3794,-0.80281 2.77128,-1.584344 4.17033,-2.35197 2.28891,-1.266976 4.59407,-2.503791 6.94531,-3.651351 z m -14.23587,-10.656908 -7.32789,-5.485796 -6.8956,9.894725 14.62095,10.945157 c 0.0411,-1.411215 0.002,-2.827203 -0.013,-4.236583 -0.0667,-3.375055 -0.20324,-6.748269 -0.34276,-10.12092 z" />
    <path
       id="path15"
       style="fill:#79b77d;fill-opacity:1;fill-rule:evenodd;stroke:#000000;stroke-width:0.784167;stroke-dasharray:none;stroke-opacity:1"
       d="m 148.03427,119.37546 3.32094,-8.6738 c -0.31083,-0.35826 -0.62076,-0.71751 -0.9327,-1.07512 -1.72009,-1.9197 -3.51509,-3.76921 -5.33191,-5.59733 -0.97748,-0.99079 -1.96219,-1.97475 -2.96038,-2.94488 l -5.49918,14.36414 z m 4.44801,-11.61793 5.07568,-13.258755 c -2.8319,0.931524 -5.66584,1.857105 -8.517,2.728348 -1.77806,0.526074 -3.55765,1.090431 -5.37283,1.480056 1.14941,1.107291 2.28177,2.232401 3.40273,3.368211 1.84459,1.8552 3.66464,3.73429 5.41142,5.6821 z m 6.35782,-16.607475 3.27284,-8.548704 -11.40324,-3.926992 -6.52977,17.056687 c 1.36867,-0.346373 2.71998,-0.771185 4.07154,-1.171024 3.22819,-0.987086 6.43549,-2.040856 9.64143,-3.097329 z" />
    <path
       id="path16"
       style="fill:#79b77d;fill-opacity:1;fill-rule:evenodd;stroke:#000000;stroke-width:0.784167;stroke-dasharray:none;stroke-opacity:1"
       d="m 91.632096,130.14007 9.284744,0.23873 c 0.23411,-0.4125 0.46946,-0.82448 0.7026,-1.23781 1.23629,-2.26175 2.38144,-4.57072 3.49915,-6.89313 0.60816,-1.25191 1.20747,-2.50835 1.78925,-3.7729 l -15.375742,-0.39494 z m 12.436194,0.31962 14.19241,0.36425 c -1.82248,-2.35923 -3.64003,-4.72237 -5.41209,-7.11986 -1.08884,-1.50089 -2.21428,-2.99046 -3.18686,-4.57185 -0.66067,1.45285 -1.34382,2.89556 -2.04086,4.33109 -1.13398,2.35762 -2.29866,4.70007 -3.55256,6.99636 z m 17.77701,0.45643 9.15076,0.2351 -0.1,-12.06007 -18.25784,-0.46876 c 0.78292,1.17485 1.63399,2.30718 2.46161,3.44807 2.007,2.71432 4.0699,5.38671 6.13489,8.05691 z" />
    <path
       id="path17"
       style="fill:#79b77d;fill-opacity:1;fill-rule:evenodd;stroke:#000000;stroke-width:0.784167;stroke-dasharray:none;stroke-opacity:1"
       d="m 62.83523,80.381404 2.848252,8.840302 c 0.466741,0.08436 0.933401,0.170065 1.400604,0.253236 2.543482,0.417883 5.10135,0.734134 7.662819,1.020042 1.382646,0.159454 2.766638,0.309056 4.15248,0.439433 L 74.182237,76.294815 Z m 3.815145,11.840851 4.354389,13.512825 c 1.622924,-2.5007 3.251168,-4.99805 4.926885,-7.463839 1.055832,-1.52429 2.088867,-3.07937 3.259147,-4.520603 -1.58964,-0.142486 -3.177153,-0.309541 -4.76249,-0.492079 -2.600079,-0.289606 -5.196005,-0.613203 -7.777909,-1.036269 z m 5.454014,16.925845 2.807324,8.71267 11.347025,-4.0866 -5.601548,-17.383646 c -0.849443,1.12769 -1.636204,2.305611 -2.438804,3.464236 -1.896913,2.79237 -3.735753,5.6236 -5.571837,8.45608 z" />
    <ellipse
       style="fill:#9da95f;fill-opacity:1;fill-rule:evenodd;stroke:#000000;stroke-width:0.933;stroke-dasharray:none;stroke-opacity:1"
       id="path18"
       cx="113.35015"
       cy="39.220543"
       rx="6.2585974"
       ry="5.8413577" />
    <ellipse
       style="fill:#9da95f;fill-opacity:1;fill-rule:evenodd;stroke:#000000;stroke-width:0.933;stroke-dasharray:none;stroke-opacity:1"
       id="ellipse19"
       cx="160.63733"
       cy="72.599731"
       rx="6.2585974"
       ry="5.8413577" />
    <ellipse
       style="fill:#9da95f;fill-opacity:1;fill-rule:evenodd;stroke:#000000;stroke-width:0.933;stroke-dasharray:none;stroke-opacity:1"
       id="ellipse20"
       cx="140.88797"
       cy="125.72827"
       rx="6.2585974"
       ry="5.8413577" />
    <ellipse
       style="fill:#9da95f;fill-opacity:1;fill-rule:evenodd;stroke:#000000;stroke-width:0.933;stroke-dasharray:none;stroke-opacity:1"
       id="ellipse21"
       cx="83.030716"
       cy="123.78115"
       rx="6.2585974"
       ry="5.8413577" />
    <ellipse
       style="fill:#9da95f;fill-opacity:1;fill-rule:evenodd;stroke:#000000;stroke-width:0.933;stroke-dasharray:none;stroke-opacity:1"
       id="ellipse22"
       cx="63.837685"
       cy="70.930771"
       rx="6.2585974"
       ry="5.8413577" />
  </g>
</svg>
