<?xml version="1.0" encoding="UTF-8" standalone="no"?>
<!-- Created with Inkscape (http://www.inkscape.org/) -->

<svg
   width="210mm"
   height="297mm"
   viewBox="0 0 210 297"
   version="1.1"
   id="svg1"
   inkscape:version="1.3.2 (091e20e, 2023-11-25, custom)"
   sodipodi:docname="dibujo-5.svg"
   xmlns:inkscape="http://www.inkscape.org/namespaces/inkscape"
   xmlns:sodipodi="http://sodipodi.sourceforge.net/DTD/sodipodi-0.dtd"
   xmlns="http://www.w3.org/2000/svg"
   xmlns:svg="http://www.w3.org/2000/svg">
  <sodipodi:namedview
     id="namedview1"
     pagecolor="#ffffff"
     bordercolor="#000000"
     borderopacity="0.25"
     inkscape:showpageshadow="2"
     inkscape:pageopacity="0.0"
     inkscape:pagecheckerboard="0"
     inkscape:deskcolor="#d1d1d1"
     inkscape:document-units="mm"
     inkscape:zoom="0.68684764"
     inkscape:cx="1129.7993"
     inkscape:cy="693.7492"
     inkscape:window-width="1920"
     inkscape:window-height="1009"
     inkscape:window-x="-8"
     inkscape:window-y="-8"
     inkscape:window-maximized="1"
     inkscape:current-layer="layer1" />
  <defs
     id="defs1" />
  <g
     inkscape:label="Capa 1"
     inkscape:groupmode="layer"
     id="layer1">
    <path
       style="fill:#d7d7d7;fill-opacity:1;fill-rule:evenodd;stroke:#000000;stroke-width:0.573059"
       d="m 49.595974,219.52641 c 0,0 9.038945,10.08824 29.669769,10.42064 20.799077,0.3359 30.760297,-9.35727 30.760297,-9.35727 0,0 -7.66146,-32.89639 -31.756994,-32.01785 -27.912669,1.01773 -28.673072,30.95448 -28.673072,30.95448 z"
       id="path17"
       sodipodi:nodetypes="cscsc" />
    <path
       style="fill:#d7d7d7;fill-opacity:1;fill-rule:evenodd;stroke:#000000;stroke-width:0.353578"
       d="m 24.41727,173.34773 c 0,0 1.590462,10.80061 9.005936,12.05976 7.475854,1.27005 12.699877,-8.279 12.699877,-8.279 0,0 4.222189,-34.43367 -5.926182,-35.24768 -11.822139,-0.94829 -15.779631,31.46692 -15.779631,31.46692 z"
       id="path15"
       sodipodi:nodetypes="cscsc" />
    <path
       style="fill:#d7d7d7;fill-opacity:1;fill-rule:evenodd;stroke:#000000;stroke-width:0.353578"
       d="m 111.09054,177.22889 c 0,0 4.24475,10.05807 11.73925,9.41991 7.55568,-0.64273 10.22168,-11.19579 10.22168,-11.19579 0,0 -4.53617,-34.39372 -14.56498,-32.64016 -11.68287,2.04275 -7.39595,34.41604 -7.39595,34.41604 z"
       id="path16"
       sodipodi:nodetypes="cscsc" />
    <path
       style="fill:#f2f2f2;fill-opacity:1;fill-rule:evenodd;stroke:#000000;stroke-width:0.532007"
       d="m 104.25717,176.40029 c 0,0 -7.717206,-10.16587 -25.47733,-10.65298 -17.904963,-0.49187 -26.543533,9.13636 -26.543533,9.13636 0,0 6.384466,32.98633 27.13535,32.28722 24.038163,-0.80986 24.885513,-30.7706 24.885513,-30.7706 z"
       id="path14"
       sodipodi:nodetypes="cscsc" />
    <path
       style="fill:#d7d7d7;fill-opacity:1;fill-rule:evenodd;stroke:#000000;stroke-width:0.573059"
       d="m 108.3225,168.51129 c 0,0 -8.963281,-10.15552 -29.591043,-10.64214 -20.795992,-0.49137 -30.829391,9.12706 -30.829391,9.12706 0,0 7.415335,32.95275 31.516766,32.25435 27.919498,-0.80904 28.903668,-30.73927 28.903668,-30.73927 z"
       id="path13"
       sodipodi:nodetypes="cscsc" />
    <path
       style="fill:#ffffff;fill-opacity:1;fill-rule:evenodd;stroke:#000000;stroke-width:0.208514"
       d="m 106.42552,153.89864 c 0,0 4.37371,2.31231 11.30828,-0.23074 6.99128,-2.56337 9.01593,-7.18721 9.01593,-7.18721 0,0 -5.6863,-10.98696 -14.92733,-7.25998 -10.76514,4.34169 -5.39688,14.67793 -5.39688,14.67793 z"
       id="path12"
       sodipodi:nodetypes="cscsc" />
    <path
       style="fill:#fefefe;fill-opacity:1;fill-rule:evenodd;stroke:#000000;stroke-width:0.208514"
       d="m 31.557158,143.42545 c 0,0 0.407513,4.93052 6.285225,9.40352 5.925383,4.50985 10.911713,3.72525 10.911713,3.72525 0,0 6.194359,-10.70875 -1.923181,-16.48738 -9.456371,-6.73169 -15.273757,3.35861 -15.273757,3.35861 z"
       id="path11"
       sodipodi:nodetypes="cscsc" />
    <path
       style="fill:#d7d7d7;fill-opacity:1;fill-rule:evenodd;stroke:#000000;stroke-width:0.397969"
       d="m 43.57685,140.67174 c 0,0 11.214878,3.95308 36.244997,3.95473 25.234273,0.002 37.073363,-3.9142 37.073363,-3.9142 0,0 -5.26374,-13.19313 -39.013667,-12.85413 -39.316317,0.39493 -34.304693,12.8136 -34.304693,12.8136 z"
       id="path10"
       sodipodi:nodetypes="cscsc" />
    <path
       style="fill:#d7d7d7;fill-opacity:1;fill-rule:evenodd;stroke:#000000;stroke-width:0.220003"
       d="m 68.086305,128.95687 c 0,0 3.390719,3.99574 10.958351,3.99741 7.629357,0.002 11.208802,-3.95645 11.208802,-3.95645 0,0 -1.591445,-13.33551 -11.795436,-12.99284 -11.886936,0.39918 -10.371717,12.95188 -10.371717,12.95188 z"
       id="path9"
       sodipodi:nodetypes="cscsc" />
    <path
       style="fill:#d7d7d7;fill-opacity:1;fill-rule:evenodd;stroke:#000000;stroke-width:0.342"
       d="m 46.591402,75.604099 c 0,0 9.54067,-4.193941 11.22568,-14.833493 1.458649,-9.210255 20.435789,-8.479959 20.435789,-8.479959 0,0 17.945572,-0.423443 18.849921,6.154872 1.411076,10.264288 13.036398,15.830708 13.036398,15.830708 l 0.56204,21.472116 c 0,0 -6.41802,4.146139 -7.9471,5.503657 -5.025908,4.462 -3.478808,4.37899 -12.410115,13.59884 -4.765327,4.91928 -11.171859,8.22022 -17.029241,4.67075 -5.869207,-3.55664 -14.579143,-13.47723 -19.387526,-18.40533 -2.935031,-3.008105 -6.40205,-3.801981 -6.40205,-3.801981 z"
       id="path1"
       sodipodi:nodetypes="cscsccsssscc" />
    <path
       style="fill:#d7d7d7;fill-opacity:1;fill-rule:evenodd;stroke:#000000;stroke-width:0.357036"
       d="m 57.753715,61.666812 c 0,0 4.569087,7.910325 20.86574,8.056861 14.094868,0.126738 19.23984,-9.847272 19.23984,-9.847272 0,0 -1.909185,-10.354839 -20.05279,-9.847271 -21.136029,0.591281 -20.05279,11.637682 -20.05279,11.637682 z"
       id="path2"
       sodipodi:nodetypes="cscsc" />
    <ellipse
       style="fill:#000000;fill-opacity:1;fill-rule:evenodd;stroke:#000000;stroke-width:0.132832"
       id="path3"
       cx="78.494308"
       cy="67.075401"
       rx="1.6027151"
       ry="1.4665214" />
    <path
       style="fill:#ffffff;fill-opacity:1;fill-rule:evenodd;stroke:#000000;stroke-width:0.342"
       d="m 63.175097,86.865759 10.400778,-10e-7 c 0,0 1.22102,-6.990418 -0.192606,-10.015564 -0.828436,-1.772845 -2.474196,-3.786846 -4.429962,-3.852142 -2.335699,-0.07798 -4.56762,2.133719 -5.585603,4.237354 -1.370626,2.832365 -0.192607,9.630353 -0.192607,9.630353 z"
       id="path4"
       sodipodi:nodetypes="ccsasc" />
    <path
       style="fill:#ffffff;fill-opacity:1;fill-rule:evenodd;stroke:#000000;stroke-width:0.342"
       d="m 83.398832,87.058366 10.400778,-1e-6 c 0,0 1.22102,-6.990418 -0.192606,-10.015564 -0.828436,-1.772845 -2.474196,-3.786846 -4.429962,-3.852142 -2.335699,-0.07798 -4.56762,2.133719 -5.585603,4.237354 -1.370626,2.832365 -0.192607,9.630353 -0.192607,9.630353 z"
       id="path5"
       sodipodi:nodetypes="ccsasc" />
    <ellipse
       style="fill:#000000;fill-opacity:1;fill-rule:evenodd;stroke:#000000;stroke-width:0.348663"
       id="ellipse5"
       cx="68.756454"
       cy="80.830971"
       rx="3.6058023"
       ry="4.4910612" />
    <ellipse
       style="fill:#000000;fill-opacity:1;fill-rule:evenodd;stroke:#000000;stroke-width:0.348663"
       id="ellipse6"
       cx="88.504547"
       cy="81.103355"
       rx="3.6058023"
       ry="4.4910612" />
    <ellipse
       style="fill:#959595;fill-opacity:1;fill-rule:evenodd;stroke:none;stroke-width:0.102927"
       id="ellipse7"
       cx="66.696526"
       cy="79.520111"
       rx="1.0010974"
       ry="1.4096783" />
    <ellipse
       style="fill:#959595;fill-opacity:1;fill-rule:evenodd;stroke:none;stroke-width:0.102927"
       id="ellipse8"
       cx="86.717003"
       cy="79.520111"
       rx="1.0010974"
       ry="1.4096783" />
    <path
       style="fill:#000000;fill-opacity:1;fill-rule:evenodd;stroke:none;stroke-width:0.234114"
       d="m 73.728591,98.230801 10.400778,-0.04513 c 0,0 0.481147,0.769964 0.0963,1.083074 -0.877896,0.71427 -1.749673,1.003805 -5.055933,1.037955 -2.512904,0.026 -4.329049,-0.18604 -5.489301,-1.015395 -0.413688,-0.2957 0.04816,-1.060508 0.04816,-1.060508 z"
       id="path8"
       sodipodi:nodetypes="ccssscc" />
    <rect
       style="fill:#000000;fill-opacity:1;fill-rule:evenodd;stroke:none;stroke-width:0.342"
       id="rect10"
       width="68.914017"
       height="40.585728"
       x="44.399151"
       y="138.37282"
       ry="3.7320857" />
    <rect
       style="fill:#c8e4e2;fill-opacity:0.87234;fill-rule:evenodd;stroke:none;stroke-width:0.264946"
       id="rect11"
       width="55.022255"
       height="30.507391"
       x="51.208839"
       y="141.91386"
       ry="2.8053262" />
    <text
       xml:space="preserve"
       style="font-size:20.0399px;fill:#000000;fill-opacity:1;fill-rule:evenodd;stroke:none;stroke-width:2.15863"
       x="60.743511"
       y="146.36699"
       id="text17"
       transform="scale(0.88682987,1.127612)"><tspan
         sodipodi:role="line"
         id="tspan17"
         style="fill:#000000;fill-opacity:1;stroke-width:2.15863"
         x="60.743511"
         y="146.36699">HOLA</tspan></text>
    <path
       style="fill:none;fill-opacity:1;fill-rule:evenodd;stroke:none;stroke-width:0.342"
       d="m 140.00714,210.55549 c -0.0908,-0.63557 -0.0504,-1.30428 -0.27239,-1.90672 -0.2369,-0.64303 -3.20603,-7.08207 -4.35819,-7.08207 -0.37915,0 -1.76913,-0.003 -1.90672,0.27239 -0.16742,0.33484 -0.11747,0.74874 -0.27238,1.08955 -0.30292,0.6664 -0.81769,1.22705 -1.08955,1.90671 -0.27807,0.69517 -0.36319,1.45273 -0.54478,2.1791 -1.00753,4.03012 -1.94083,9.22706 1.36194,12.52982 0.50885,0.50885 2.31689,1.80167 2.99626,2.1791 0.42742,0.23746 0.94731,0.28563 1.36194,0.54477 0.32666,0.20417 0.52123,0.57056 0.81716,0.81717 0.40672,0.33893 1.04428,0.39362 1.36194,0.81716 0.64385,0.85848 0.79705,6.07297 0.54477,7.08207 -0.21987,0.8795 -0.53577,1.08055 -1.08955,1.63433 -1.909,1.909 -3.61036,1.90671 -6.26491,1.90671 -0.54477,0 -1.10123,0.11223 -1.63432,0 -1.32083,-0.27807 -3.20979,-0.15466 -3.81343,-1.36194 -0.36318,-0.72636 0.60229,-1.52941 1.08955,-2.1791 0.656,-0.87466 1.33291,-1.75915 2.1791,-2.45148 1.16956,-0.95692 2.53198,-1.65058 3.81342,-2.45149 3.65976,-2.28735 6.96154,-4.05597 10.35073,-6.80969 1.47793,-1.20082 10.19809,-8.92329 12.25743,-11.44027 2.5314,-3.09393 2.51061,-4.20404 4.08581,-7.35446 1.80165,-3.6033 0.9741,-1.28797 1.63433,-3.26865"
       id="path19" />
    <path
       style="fill:none;fill-opacity:1;fill-rule:evenodd;stroke:#000000;stroke-width:0.342;stroke-opacity:1"
       d="m 130.74597,206.46968 c -1.19083,-7.20302 -13.991,-2.08485 -10.35073,3.54103 1.91655,2.96194 5.2859,3.97412 8.44402,4.90298 0.63414,0.18651 1.269,0.37085 1.90671,0.54477 0.36117,0.0985 0.79405,0.0426 1.08955,0.27239 3.06998,2.38776 2.18493,7.18394 0.54477,10.07833 -0.93147,1.64377 -1.91706,3.31043 -3.26865,4.63059 -3.65463,3.56964 -7.22726,6.98218 -11.98504,8.17162 -1.06544,0.26636 -1.57078,-0.96786 -1.36194,-2.1791 0.34667,-2.01071 1.01769,-4.04255 2.1791,-5.72013 4.76612,-6.8844 16.35787,-16.15738 21.79099,-20.70145 17.28043,-14.45272 14.68563,-11.17367 31.59694,-26.42158 0.3932,-0.35452 0.62055,-0.87038 0.81717,-1.36194 0.19662,-0.49156 -0.9384,0.49951 -1.36194,0.81716"
       id="path20" />
    <path
       style="fill:none;fill-opacity:1;fill-rule:evenodd;stroke:#000000;stroke-width:0.342;stroke-opacity:1"
       d="m 134.287,209.73833 c 2.94191,-0.65994 2.2861,-2.13534 0.27239,-3.81343 -0.19728,-0.16441 -0.31508,-0.42993 -0.54477,-0.54478 -0.32484,-0.16242 -0.72637,0 -1.08955,0 -1.06856,0 -0.82448,0.56672 -1.08955,1.36194 -0.43856,1.31567 -1.01513,1.99974 0,3.26865 0.0439,0.0549 0.82455,0.93073 1.08955,0.81716 0.53437,-0.22901 0.89683,-0.74072 1.36193,-1.08954 2.12753,-1.59565 2.50759,-1.67048 2.99627,-4.35821 0.0975,-0.53598 -0.38522,-1.24911 0,-1.63432 0.14356,-0.14356 0.39454,-0.13582 0.54477,-0.27239 8.27802,-7.52547 -3.33153,2.32579 5.17536,-4.3582 1.23147,0.0387 0.8605,-1.13288 1.36194,-1.63432 0.0642,-0.0642 0.0567,0.20149 0,0.27239 -0.32085,0.40107 -0.72637,0.72636 -1.08955,1.08955 -0.54478,0.54477 -1.15834,1.02852 -1.63432,1.63432 -0.3395,0.43208 -2.7897,3.95114 -1.36194,4.90297 0.89281,0.59522 2.77121,-1.72899 3.54104,-3.26864 0.1284,-0.25681 0.0694,-1.02019 0.27238,-0.81717 0.0642,0.0642 0.0178,0.18336 0,0.27239 -0.16417,0.82084 -0.39762,1.62743 -0.54477,2.45149 -1.71502,9.60411 0.48111,0.71971 -3.26865,12.25743 -0.40862,1.25728 -0.74171,2.538 -1.08955,3.81343 -0.25731,0.94344 -0.39807,3.41535 -1.08955,2.72387 -0.66684,-0.66684 0.57909,-3.97428 1.08955,-5.17536 2.15392,-5.06805 3.40912,-7.6045 5.99252,-11.98505 1.2419,-2.10582 2.55561,-4.16855 3.81343,-6.26491 0.16953,-0.28256 1.36193,-1.9322 1.36193,-2.72387 -1.9665,2.24743 -1.90671,1.21393 -1.90671,2.45149"
       id="path21" />
    <path
       style="fill:none;fill-opacity:1;fill-rule:evenodd;stroke:#000000;stroke-width:0.342;stroke-opacity:1"
       d="m 146.81683,188.4921 h 0.54477"
       id="path22" />
    <path
       style="fill:none;fill-opacity:1;fill-rule:evenodd;stroke:#000000;stroke-width:0.342;stroke-opacity:1"
       d="m 155.26084,190.6712 c -1.36485,0 -1.32447,-0.16242 -2.72388,0.81717 -1.59095,1.11366 -1.36194,2.12924 -1.36194,3.81342 0,0.36318 0,0.72637 0,1.08955 0,0.18159 -0.1284,0.41637 0,0.54477 0.0624,0.0624 1.53919,0.0317 1.63433,0 0.3894,-0.1298 0.34058,-0.88535 0.54478,-1.08954 0.14356,-0.14357 0.43215,-0.10346 0.54477,-0.27239 0.20146,-0.30219 0,-0.72637 0,-1.08955 0,-0.99876 0,-1.99751 0,-2.99626"
       id="path23" />
  </g>
</svg>
