<?xml version="1.0" encoding="UTF-8" standalone="no"?>
<!-- Created with Inkscape (http://www.inkscape.org/) -->

<svg
   width="340.97278mm"
   height="307.01556mm"
   viewBox="0 0 340.97278 307.01556"
   version="1.1"
   id="svg1"
   inkscape:version="1.3.2 (091e20e, 2023-11-25, custom)"
   sodipodi:docname="dibujo-2.svg"
   xmlns:inkscape="http://www.inkscape.org/namespaces/inkscape"
   xmlns:sodipodi="http://sodipodi.sourceforge.net/DTD/sodipodi-0.dtd"
   xmlns="http://www.w3.org/2000/svg"
   xmlns:svg="http://www.w3.org/2000/svg">
  <sodipodi:namedview
     id="namedview1"
     pagecolor="#ffffff"
     bordercolor="#000000"
     borderopacity="0.25"
     inkscape:showpageshadow="2"
     inkscape:pageopacity="0.0"
     inkscape:pagecheckerboard="0"
     inkscape:deskcolor="#d1d1d1"
     inkscape:document-units="mm"
     showguides="false"
     inkscape:zoom="0.68684764"
     inkscape:cx="535.05316"
     inkscape:cy="433.86623"
     inkscape:window-width="958"
     inkscape:window-height="1000"
     inkscape:window-x="953"
     inkscape:window-y="0"
     inkscape:window-maximized="0"
     inkscape:current-layer="layer1">
    <inkscape:page
       x="0"
       y="0"
       width="340.97278"
       height="307.01556"
       id="page34"
       margin="0 0 0 0"
       bleed="0" />
    <inkscape:page
       x="288.91049"
       y="6.9338522"
       width="16.949415"
       height="0.77042806"
       id="page35"
       margin="0"
       bleed="0" />
  </sodipodi:namedview>
  <defs
     id="defs1" />
  <g
     inkscape:label="Capa 1"
     inkscape:groupmode="layer"
     id="layer1"
     transform="translate(77.813233,10.015564)">
    <path
       style="fill:#acb8b2;fill-opacity:1;fill-rule:evenodd;stroke:#000000;stroke-width:1.20354;stroke-dasharray:none;stroke-opacity:1"
       d="M 61.68301,43.441977 64.718823,6.8856531 68.134112,42.954558 Z"
       id="path44" />
    <path
       style="fill:#acb8b2;fill-opacity:1;fill-rule:evenodd;stroke:#000000;stroke-width:1.678;stroke-dasharray:none;stroke-opacity:1"
       id="path42-3"
       sodipodi:type="arc"
       sodipodi:cx="-63.681015"
       sodipodi:cy="-52.928524"
       sodipodi:rx="11.613554"
       sodipodi:ry="11.167242"
       sodipodi:start="0.00023041526"
       sodipodi:end="3.1585249"
       sodipodi:arc-type="slice"
       d="m -52.067461,-52.925951 a 11.613554,11.167242 0 0 1 -5.865185,9.700752 11.613554,11.167242 0 0 1 -11.669073,-0.09629 11.613554,11.167242 0 0 1 -5.691185,-9.796111 l 11.611889,0.189077 z"
       transform="matrix(-0.99994402,0.01058123,-0.01072513,-0.99994248,0,0)" />
    <path
       style="fill:#acb8b2;fill-opacity:1;fill-rule:evenodd;stroke:#000000;stroke-width:2.433;stroke-dasharray:none;stroke-opacity:1"
       id="path42"
       sodipodi:type="arc"
       sodipodi:cx="-62.86026"
       sodipodi:cy="-83.267456"
       sodipodi:rx="36.210117"
       sodipodi:ry="35.054474"
       sodipodi:start="0.00023041526"
       sodipodi:end="3.1585249"
       sodipodi:arc-type="slice"
       d="m -26.650144,-83.259379 a 36.210117,35.054474 0 0 1 -18.28717,30.451095 36.210117,35.054474 0 0 1 -36.383221,-0.30226 36.210117,35.054474 0 0 1 -17.744652,-30.750435 l 36.204927,0.593523 z"
       transform="rotate(179.38962)" />
    <rect
       style="fill:#acb8b2;fill-opacity:1;fill-rule:evenodd;stroke:#000000;stroke-width:2.45859;stroke-dasharray:none;stroke-opacity:1"
       id="rect42"
       width="72.009422"
       height="75.861557"
       x="27.748203"
       y="83.604233" />
    <rect
       style="fill:#acb8b2;fill-opacity:1;fill-rule:evenodd;stroke:none;stroke-width:1.9105;stroke-dasharray:none;stroke-opacity:1"
       id="rect43"
       width="68.9533"
       height="16.949417"
       x="29.276264"
       y="78.583656" />
    <ellipse
       style="fill:#acb8b2;fill-opacity:1;fill-rule:evenodd;stroke:#000000;stroke-width:0.826573;stroke-dasharray:none;stroke-opacity:1"
       id="path45"
       cx="64.715942"
       cy="9.0525293"
       rx="3.2074254"
       ry="3.4000323" />
    <rect
       style="fill:#acb8b2;fill-opacity:1;fill-rule:evenodd;stroke:#000000;stroke-width:1.078;stroke-dasharray:none;stroke-opacity:1"
       id="rect45"
       width="83.206223"
       height="29.276264"
       x="23.498051"
       y="80.894936" />
    <path
       style="fill:#acb8b2;fill-opacity:1;fill-rule:evenodd;stroke:#000000;stroke-width:1.69500692;stroke-dasharray:none;stroke-opacity:1"
       id="path46"
       sodipodi:type="arc"
       sodipodi:cx="95.918755"
       sodipodi:cy="-26.916634"
       sodipodi:rx="14.537022"
       sodipodi:ry="17.677069"
       sodipodi:start="0.00023041526"
       sodipodi:end="3.1585249"
       sodipodi:arc-type="slice"
       d="m 110.45578,-26.912561 a 14.537022,17.677069 0 0 1 -7.34163,15.355703 14.537022,17.677069 0 0 1 -14.606512,-0.152421 14.537022,17.677069 0 0 1 -7.123821,-15.506653 l 14.534938,0.299298 z"
       transform="matrix(0.01103599,0.9999391,-0.99997554,0.00699444,0,0)" />
    <path
       style="fill:#acb8b2;fill-opacity:1;fill-rule:evenodd;stroke:#000000;stroke-width:1.69500692;stroke-dasharray:none;stroke-opacity:1"
       id="path47"
       sodipodi:type="arc"
       sodipodi:cx="-96.93071"
       sodipodi:cy="99.873444"
       sodipodi:rx="14.537022"
       sodipodi:ry="17.677069"
       sodipodi:start="0.00023041526"
       sodipodi:end="3.1585249"
       sodipodi:arc-type="slice"
       d="m -82.393689,99.877517 a 14.537022,17.677069 0 0 1 -7.341621,15.355703 14.537022,17.677069 0 0 1 -14.60652,-0.15242 14.537022,17.677069 0 0 1 -7.12382,-15.506655 l 14.53494,0.299299 z"
       transform="matrix(-0.01560763,-0.99987819,0.99993311,-0.01156628,0,0)" />
    <rect
       style="fill:#acb8b2;fill-opacity:1;fill-rule:evenodd;stroke:none;stroke-width:0.833414;stroke-dasharray:none;stroke-opacity:1"
       id="rect47"
       width="20.031126"
       height="27.735407"
       x="26.964977"
       y="81.761673" />
    <rect
       style="fill:#acb8b2;fill-opacity:1;fill-rule:evenodd;stroke:none;stroke-width:0.833414;stroke-dasharray:none;stroke-opacity:1"
       id="rect48"
       width="20.031126"
       height="27.735407"
       x="84.438728"
       y="82.034058" />
    <rect
       style="fill:#000000;fill-opacity:1;fill-rule:evenodd;stroke:none;stroke-width:3.06719;stroke-dasharray:none;stroke-opacity:1"
       id="rect49"
       width="100.51097"
       height="23.697706"
       x="13.981332"
       y="83.685715"
       ry="11.848853" />
    <ellipse
       style="fill:#ffffff;fill-opacity:1;fill-rule:evenodd;stroke:none;stroke-width:1.94894;stroke-dasharray:none;stroke-opacity:1"
       id="path49"
       cx="46.463543"
       cy="95.330276"
       rx="15.049406"
       ry="14.913212" />
    <ellipse
       style="fill:#000000;fill-opacity:1;fill-rule:evenodd;stroke:none;stroke-width:0.336174;stroke-dasharray:none;stroke-opacity:1"
       id="ellipse50"
       cx="50.481251"
       cy="96.487938"
       rx="2.4514866"
       ry="2.7238743" />
    <ellipse
       style="fill:#ffffff;fill-opacity:1;fill-rule:evenodd;stroke:none;stroke-width:1.99277;stroke-dasharray:none;stroke-opacity:1"
       id="ellipse49"
       cx="80.852455"
       cy="95.398376"
       rx="15.662277"
       ry="14.981309" />
    <ellipse
       style="fill:#000000;fill-opacity:1;fill-rule:evenodd;stroke:none;stroke-width:0.336174;stroke-dasharray:none;stroke-opacity:1"
       id="ellipse51"
       cx="76.902832"
       cy="96.487938"
       rx="2.4514866"
       ry="2.7238743" />
    <rect
       style="fill:#000000;fill-opacity:1;fill-rule:evenodd;stroke:none;stroke-width:1.22299;stroke-dasharray:none;stroke-opacity:1"
       id="rect51"
       width="29.583704"
       height="0.97271413"
       x="36.095284"
       y="80.396896" />
    <rect
       style="fill:#000000;fill-opacity:1;fill-rule:evenodd;stroke:none;stroke-width:1.22299;stroke-dasharray:none;stroke-opacity:1"
       id="rect52"
       width="29.583704"
       height="0.97271413"
       x="61.291122"
       y="80.533089" />
    <rect
       style="fill:#000000;fill-opacity:1;fill-rule:evenodd;stroke:none;stroke-width:1.695;stroke-dasharray:none;stroke-opacity:1"
       id="rect53"
       width="1.2257435"
       height="1.0895498"
       x="83.576317"
       y="80.280869" />
    <rect
       style="fill:#000000;fill-opacity:1;fill-rule:evenodd;stroke:none;stroke-width:1.22299;stroke-dasharray:none;stroke-opacity:1"
       id="rect54"
       width="29.583704"
       height="0.97271413"
       x="64.881035"
       y="109.79283" />
    <rect
       style="fill:#000000;fill-opacity:1;fill-rule:evenodd;stroke:none;stroke-width:1.22299;stroke-dasharray:none;stroke-opacity:1"
       id="rect55"
       width="29.583704"
       height="0.97271413"
       x="31.513575"
       y="109.52045" />
    <rect
       style="fill:#acb8b2;fill-opacity:1;fill-rule:evenodd;stroke:none;stroke-width:0.276843;stroke-dasharray:none;stroke-opacity:1"
       id="rect42-3"
       width="32.461243"
       height="2.1337464"
       x="63.907257"
       y="-83.602936"
       transform="scale(1,-1)" />
    <rect
       style="fill:#acb8b2;fill-opacity:1;fill-rule:evenodd;stroke:none;stroke-width:0.286061;stroke-dasharray:none;stroke-opacity:1"
       id="rect56"
       width="32.461243"
       height="2.2782016"
       x="63.771065"
       y="-109.76039"
       transform="scale(1,-1)" />
    <rect
       style="fill:#acb8b2;fill-opacity:1;fill-rule:evenodd;stroke:none;stroke-width:0.286061;stroke-dasharray:none;stroke-opacity:1"
       id="rect57"
       width="32.461243"
       height="2.2782016"
       x="28.769279"
       y="-109.48801"
       transform="scale(1,-1)" />
    <rect
       style="fill:#acb8b2;fill-opacity:1;fill-rule:evenodd;stroke:none;stroke-width:0.286061;stroke-dasharray:none;stroke-opacity:1"
       id="rect58"
       width="32.461243"
       height="2.2782016"
       x="31.084572"
       y="-83.611198"
       transform="scale(1,-1)" />
    <path
       style="fill:#ffffff;fill-opacity:1;fill-rule:evenodd;stroke:#000000;stroke-width:0.795;stroke-dasharray:none;stroke-opacity:1"
       d="m 38.204455,124.78317 c 7.354462,1.36194 16.59929,1.68614 25.604419,1.63432 8.829951,-0.0508 24.701807,-2.09932 24.701807,-2.09932 0,0 6.850788,5.46845 6.383408,12.65634 -0.578946,8.90368 -7.115121,11.77876 -7.115121,11.77876 l -46.850638,0.27238 c 0,0 -10.021336,-4.36189 -9.533559,-12.25743 0.719899,-11.65285 6.809684,-11.98505 6.809684,-11.98505 z"
       id="path58"
       sodipodi:nodetypes="cscsccsc" />
    <path
       style="fill:#ffffff;fill-opacity:1;fill-rule:evenodd;stroke:#000000;stroke-width:0.794999;stroke-dasharray:none;stroke-opacity:1"
       d="m 44.684819,126.5428 v 23.30545"
       id="path59" />
    <path
       style="fill:#ffffff;fill-opacity:1;fill-rule:evenodd;stroke:#000000;stroke-width:0.7784;stroke-dasharray:none;stroke-opacity:1"
       d="m 56.433846,126.92801 v 22.34241"
       id="path60" />
    <path
       style="fill:#ffffff;fill-opacity:1;fill-rule:evenodd;stroke:#000000;stroke-width:0.785082;stroke-dasharray:none;stroke-opacity:1"
       d="m 64.908554,127.12062 v 22.72763"
       id="path61" />
    <path
       style="fill:#ffffff;fill-opacity:1;fill-rule:evenodd;stroke:#000000;stroke-width:0.794999;stroke-dasharray:none;stroke-opacity:1"
       d="m 74.15369,126.5428 v 23.30545"
       id="path62" />
    <path
       style="fill:#ffffff;fill-opacity:1;fill-rule:evenodd;stroke:#000000;stroke-width:0.794999;stroke-dasharray:none;stroke-opacity:1"
       d="m 84.32681,125.28401 v 23.30545"
       id="path63" />
    <path
       style="fill:#ffffff;fill-opacity:1;fill-rule:evenodd;stroke:#000000;stroke-width:0.794999;stroke-dasharray:none;stroke-opacity:1"
       d="m 34.861864,131.35797 c -8.616426,-2.05153 17.787706,3.51791 28.89105,3.65954 10.050283,0.1282 31.009727,-4.23736 31.009727,-4.23736"
       id="path64"
       sodipodi:nodetypes="csc" />
    <path
       style="fill:#ffffff;fill-opacity:1;fill-rule:evenodd;stroke:#000000;stroke-width:0.878817;stroke-dasharray:none;stroke-opacity:1"
       d="m 31.780048,137.44477 c 0,0 20.901338,4.38648 31.4675,4.26997 10.525868,-0.1161 31.265785,-4.94417 31.265785,-4.94417"
       id="path65"
       sodipodi:nodetypes="csc" />
    <path
       style="fill:#ffffff;fill-opacity:1;fill-rule:evenodd;stroke:#000000;stroke-width:0.7784;stroke-dasharray:none;stroke-opacity:1"
       d="m 56.241239,126.5428 v 22.34241"
       id="path66" />
    <path
       style="fill:#ffffff;fill-opacity:1;fill-rule:evenodd;stroke:#000000;stroke-width:0.794999;stroke-dasharray:none;stroke-opacity:1"
       d="m 44.492212,125.96498 v 23.30545"
       id="path67" />
    <path
       style="fill:#ffffff;fill-opacity:1;fill-rule:evenodd;stroke:#000000;stroke-width:0.785082;stroke-dasharray:none;stroke-opacity:1"
       d="m 64.863824,126.50775 v 22.72763"
       id="path68" />
    <path
       style="fill:#ffffff;fill-opacity:1;fill-rule:evenodd;stroke:#000000;stroke-width:0.794999;stroke-dasharray:none;stroke-opacity:1"
       d="m 74.15369,126.5428 v 23.30545"
       id="path69" />
    <path
       style="fill:#ffffff;fill-opacity:1;fill-rule:evenodd;stroke:#000000;stroke-width:0.794999;stroke-dasharray:none;stroke-opacity:1"
       d="M 84.361861,125.19455 V 148.5"
       id="path70" />
    <path
       style="fill:#ffffff;fill-opacity:1;fill-rule:evenodd;stroke:#000000;stroke-width:0.794999;stroke-dasharray:none;stroke-opacity:1"
       d="m 88.887878,172.48402 c -0.926881,-0.73997 -1.094174,-2.45611 -1.906715,-3.26865 -0.154284,-0.15429 -2.290006,-2.14894 -2.99626,-1.08955 -0.177737,0.2666 -0.272389,2.16024 -0.272389,2.45148 0,0.81717 -0.224491,1.66577 0,2.45149 0.426236,1.49182 1.023152,2.93213 1.634326,4.3582 0.878332,2.04944 1.660993,1.71909 3.268649,2.72388 1.773746,1.10859 2.996261,3.37907 2.996261,5.44774 0,0.45398 0.321014,1.04093 0,1.36194 -0.203026,0.20303 -0.553254,0.15928 -0.81716,0.27239 -0.373222,0.15995 -0.695624,0.44629 -1.089552,0.54477 -0.352338,0.0881 -0.728168,-0.0361 -1.089549,0 -1.837819,0.18379 -3.59006,0.27239 -5.447749,0.27239 -0.99767,0 -2.088399,0.13123 -1.634324,-0.27239 4.739812,-4.21316 9.747009,-7.70741 15.253695,-10.89549 2.495984,-1.44505 5.206639,-2.51716 7.626849,-4.08582 0.61516,-0.39871 8.29396,-6.1055 10.07833,-8.17162 0.85591,-0.99104 1.42817,-2.19588 2.1791,-3.26865 0.0599,-0.0855 2.45149,-2.83945 2.45149,-3.54103"
       id="path72" />
    <path
       style="fill:#ffffff;fill-opacity:1;fill-rule:evenodd;stroke:#000000;stroke-width:0.794999;stroke-dasharray:none;stroke-opacity:1"
       d="m 91.339364,175.20789 c 0.363183,0 0.726366,0 1.089549,0 0.112159,0 0.745059,0.0721 0.817163,0 0.593085,-0.59308 0.253711,-3.14179 -0.544775,-3.54103 -0.355364,-0.17769 -1.390954,0.029 -1.634326,0.27238 -0.28712,0.28712 -0.257653,0.80243 -0.544774,1.08955 -0.331764,0.33176 -0.608571,0.12759 -0.817163,0.54478 -0.176099,0.35219 -0.147635,2.37939 0,2.72387 0.157282,0.36699 1.129422,1.65426 1.634326,1.90671 0.113072,0.0565 1.076619,0.006 1.089549,0 0.08121,-0.0406 -0.08121,-0.23178 0,-0.27238 0.324842,-0.16242 0.764709,0.16242 1.089549,0 0.08121,-0.0406 0,-0.1816 0,-0.27239 0,-1.35831 -0.377717,-4.00517 0.272388,-5.17536 0.249436,-0.44899 0.726366,-0.72637 1.089549,-1.08955 0.726369,-0.72637 1.371365,-1.54445 2.1791,-2.1791 1.405721,-0.70286 1.620108,-0.68824 2.723875,-1.63433 0.09181,-0.0787 1.375246,-1.63432 1.634326,-1.63432 0.66868,0 -0.89674,6.96883 -1.36194,7.89923 -0.760309,1.52063 -2.082334,2.27587 -1.634323,2.72388 0.0642,0.0642 0.181591,0 0.272386,0 0.272388,0 0.564258,0.10116 0.817163,0 0.722274,-0.28891 2.005694,-2.35229 2.179104,-2.72388 0.36425,-0.78055 0.50496,-1.64869 0.81716,-2.45148 1.16673,-3.00016 1.0694,-1.83283 1.90671,-4.90298 0.0717,-0.26279 0.27239,-0.81716 0,-0.81716 -0.0908,0 0,0.18159 0,0.27239 0,0.27239 0,0.54477 0,0.81716 0,0.99875 -0.31583,2.04876 0,2.99626 0.0657,0.19707 1.37582,1.19105 1.63432,0.54478 0.4751,-1.18775 1.90672,-5.23089 1.90672,-6.26491 0,-0.0908 0.0367,0.18931 0,0.27238 -1.32849,3.01125 -2.52268,6.0924 -4.08581,8.98879 -1.53129,2.83737 -3.58765,5.36543 -5.175367,8.17162 -2.319806,4.10013 -4.333129,8.36639 -6.537296,12.52982 -2.925175,5.52533 3.420327,-7.89997 -3.268649,5.99253 -0.548622,1.13944 -0.796375,2.40991 -1.361938,3.54103 -0.0406,0.0812 -0.0048,-0.18171 0,-0.27238 0.08603,-1.63459 0.06936,-3.27877 0.272386,-4.90298 0.07123,-0.56981 0.287967,-1.1207 0.544775,-1.63432 1.289812,-2.57963 2.493822,-5.22193 4.085812,-7.62685 2.686349,-4.0581 5.73714,-7.86445 8.716397,-11.71266 5.82306,-7.52145 3.12701,-2.4406 7.08207,-10.35072 0.20303,-0.40605 -0.0985,-0.91877 0,-1.36194 -0.15853,-0.8008 0.64946,-1.23588 0.81717,-1.90671 0.22283,-0.89133 0.27238,-1.77535 0.27238,-2.72388"
       id="path73" />
    <path
       style="fill:#ffffff;fill-opacity:1;fill-rule:evenodd;stroke:#000000;stroke-width:0.794999;stroke-dasharray:none;stroke-opacity:1"
       d="m 113.40275,159.40942 c -0.45398,0.81716 -1.08311,1.55924 -1.36194,2.45149 -0.64984,2.07947 1.47934,3.9684 2.1791,3.26865 0.1926,-0.19261 -0.0661,-0.55291 0,-0.81717 0.30526,-1.22105 1.08955,-1.90516 1.08955,-3.26865 0,-0.36318 0.20146,-0.78736 0,-1.08954 -0.14245,-0.21368 -0.40233,-0.3311 -0.54478,-0.54478 -0.0504,-0.0756 0.0908,-0.27239 0,-0.27239 -0.46297,0 -0.90795,0.18159 -1.36193,0.27239 z"
       id="path74" />
  </g>
</svg>
